<?xml version="1.0"?>
<svg xmlns="http://www.w3.org/2000/svg" xmlns:xlink="http://www.w3.org/1999/xlink" version="1.1" width="304px" height="304px" viewBox="0 0 304 304"><rect x="0" y="0" width="304" height="304" fill="#ffffff" fill-opacity="1"/><path fill="#000000" fill-opacity="1" d="M7,7L77,7L77,17L7,17ZM87,7L117,7L117,17L87,17ZM127,7L137,7L137,17L127,17ZM147,7L157,7L157,17L147,17ZM187,7L197,7L197,17L187,17ZM227,7L297,7L297,17L227,17ZM7,17L17,17L17,27L7,27ZM67,17L77,17L77,27L67,27ZM107,17L137,17L137,27L107,27ZM157,17L177,17L177,27L157,27ZM187,17L197,17L197,27L187,27ZM227,17L237,17L237,27L227,27ZM287,17L297,17L297,27L287,27ZM7,27L17,27L17,37L7,37ZM27,27L57,27L57,37L27,37ZM67,27L77,27L77,37L67,37ZM117,27L177,27L177,37L117,37ZM187,27L207,27L207,37L187,37ZM227,27L237,27L237,37L227,37ZM247,27L277,27L277,37L247,37ZM287,27L297,27L297,37L287,37ZM7,37L17,37L17,47L7,47ZM27,37L57,37L57,47L27,47ZM67,37L77,37L77,47L67,47ZM87,37L97,37L97,47L87,47ZM107,37L117,37L117,47L107,47ZM127,37L137,37L137,47L127,47ZM147,37L157,37L157,47L147,47ZM177,37L187,37L187,47L177,47ZM207,37L217,37L217,47L207,47ZM227,37L237,37L237,47L227,47ZM247,37L277,37L277,47L247,47ZM287,37L297,37L297,47L287,47ZM7,47L17,47L17,57L7,57ZM27,47L57,47L57,57L27,57ZM67,47L77,47L77,57L67,57ZM107,47L117,47L117,57L107,57ZM127,47L177,47L177,57L127,57ZM197,47L217,47L217,57L197,57ZM227,47L237,47L237,57L227,57ZM247,47L277,47L277,57L247,57ZM287,47L297,47L297,57L287,57ZM7,57L17,57L17,67L7,67ZM67,57L77,57L77,67L67,67ZM97,57L117,57L117,67L97,67ZM127,57L137,57L137,67L127,67ZM167,57L187,57L187,67L167,67ZM197,57L217,57L217,67L197,67ZM227,57L237,57L237,67L227,67ZM287,57L297,57L297,67L287,67ZM7,67L77,67L77,77L7,77ZM87,67L97,67L97,77L87,77ZM107,67L117,67L117,77L107,77ZM127,67L137,67L137,77L127,77ZM147,67L157,67L157,77L147,77ZM167,67L177,67L177,77L167,77ZM187,67L197,67L197,77L187,77ZM207,67L217,67L217,77L207,77ZM227,67L297,67L297,77L227,77ZM107,77L117,77L117,87L107,87ZM137,77L167,77L167,87L137,87ZM177,77L217,77L217,87L177,87ZM27,87L37,87L37,97L27,97ZM47,87L77,87L77,97L47,97ZM87,87L97,87L97,97L87,97ZM107,87L137,87L137,97L107,97ZM157,87L167,87L167,97L157,97ZM187,87L197,87L197,97L187,97ZM217,87L227,87L227,97L217,97ZM257,87L267,87L267,97L257,97ZM287,87L297,87L297,97L287,97ZM47,97L67,97L67,107L47,107ZM107,97L147,97L147,107L107,107ZM157,97L177,97L177,107L157,107ZM187,97L207,97L207,107L187,107ZM217,97L227,97L227,107L217,107ZM237,97L247,97L247,107L237,107ZM277,97L287,97L287,107L277,107ZM7,107L27,107L27,117L7,117ZM37,107L47,107L47,117L37,117ZM67,107L127,107L127,117L67,117ZM167,107L177,107L177,117L167,117ZM217,107L237,107L237,117L217,117ZM247,107L257,107L257,117L247,117ZM267,107L277,107L277,117L267,117ZM287,107L297,107L297,117L287,117ZM7,117L47,117L47,127L7,127ZM57,117L67,117L67,127L57,127ZM77,117L97,117L97,127L77,127ZM127,117L157,117L157,127L127,127ZM167,117L187,117L187,127L167,127ZM197,117L207,117L207,127L197,127ZM217,117L247,117L247,127L217,127ZM17,127L47,127L47,137L17,137ZM67,127L77,127L77,137L67,137ZM87,127L107,127L107,137L87,137ZM117,127L127,127L127,137L117,137ZM137,127L147,127L147,137L137,137ZM167,127L177,127L177,137L167,137ZM207,127L217,127L217,137L207,137ZM247,127L257,127L257,137L247,137ZM287,127L297,127L297,137L287,137ZM37,137L47,137L47,147L37,147ZM77,137L97,137L97,147L77,147ZM117,137L177,137L177,147L117,147ZM197,137L207,137L207,147L197,147ZM27,147L37,147L37,157L27,157ZM47,147L77,147L77,157L47,157ZM87,147L117,147L117,157L87,157ZM127,147L137,147L137,157L127,157ZM147,147L157,147L157,157L147,157ZM177,147L187,147L187,157L177,157ZM207,147L227,147L227,157L207,157ZM237,147L247,147L247,157L237,157ZM257,147L297,147L297,157L257,157ZM17,157L27,157L27,167L17,167ZM37,157L47,157L47,167L37,167ZM77,157L87,157L87,167L77,167ZM97,157L137,157L137,167L97,167ZM147,157L167,157L167,167L147,167ZM217,157L237,157L237,167L217,167ZM277,157L297,157L297,167L277,167ZM7,167L37,167L37,177L7,177ZM47,167L57,167L57,177L47,177ZM67,167L77,167L77,177L67,177ZM97,167L107,167L107,177L97,177ZM117,167L127,167L127,177L117,177ZM147,167L197,167L197,177L147,177ZM207,167L227,167L227,177L207,177ZM237,167L257,167L257,177L237,177ZM267,167L297,167L297,177L267,177ZM17,177L37,177L37,187L17,187ZM47,177L67,177L67,187L47,187ZM77,177L97,177L97,187L77,187ZM107,177L127,177L127,187L107,187ZM157,177L167,177L167,187L157,187ZM177,177L227,177L227,187L177,187ZM277,177L287,177L287,187L277,187ZM7,187L17,187L17,197L7,197ZM67,187L77,187L77,197L67,197ZM107,187L157,187L157,197L107,197ZM167,187L177,187L177,197L167,197ZM197,187L237,187L237,197L197,197ZM277,187L297,187L297,197L277,197ZM17,197L57,197L57,207L17,207ZM87,197L97,197L97,207L87,207ZM127,197L137,197L137,207L127,207ZM147,197L157,197L157,207L147,207ZM167,197L177,197L177,207L167,207ZM207,197L237,197L237,207L207,207ZM257,197L297,197L297,207L257,207ZM7,207L17,207L17,217L7,217ZM27,207L37,207L37,217L27,217ZM57,207L87,207L87,217L57,217ZM107,207L117,207L117,217L107,217ZM127,207L137,207L137,217L127,217ZM157,207L167,207L167,217L157,217ZM177,207L187,207L187,217L177,217ZM197,207L277,207L277,217L197,217ZM87,217L97,217L97,227L87,227ZM107,217L147,217L147,227L107,227ZM207,217L217,217L217,227L207,227ZM247,217L257,217L257,227L247,227ZM277,217L297,217L297,227L277,227ZM7,227L77,227L77,237L7,237ZM117,227L127,227L127,237L117,237ZM137,227L147,227L147,237L137,237ZM157,227L217,227L217,237L157,237ZM227,227L237,227L237,237L227,237ZM247,227L257,227L257,237L247,237ZM277,227L297,227L297,237L277,237ZM7,237L17,237L17,247L7,247ZM67,237L77,237L77,247L67,247ZM87,237L127,237L127,247L87,247ZM157,237L167,237L167,247L157,247ZM207,237L217,237L217,247L207,247ZM247,237L257,237L257,247L247,247ZM287,237L297,237L297,247L287,247ZM7,247L17,247L17,257L7,257ZM27,247L57,247L57,257L27,257ZM67,247L77,247L77,257L67,257ZM87,247L97,247L97,257L87,257ZM107,247L137,247L137,257L107,257ZM147,247L167,247L167,257L147,257ZM177,247L197,247L197,257L177,257ZM207,247L297,247L297,257L207,257ZM7,257L17,257L17,267L7,267ZM27,257L57,257L57,267L27,267ZM67,257L77,257L77,267L67,267ZM97,257L117,257L117,267L97,267ZM127,257L167,257L167,267L127,267ZM177,257L187,257L187,267L177,267ZM197,257L217,257L217,267L197,267ZM227,257L237,257L237,267L227,267ZM247,257L257,257L257,267L247,267ZM7,267L17,267L17,277L7,277ZM27,267L57,267L57,277L27,277ZM67,267L77,267L77,277L67,277ZM87,267L97,267L97,277L87,277ZM137,267L177,267L177,277L137,277ZM197,267L217,267L217,277L197,277ZM247,267L257,267L257,277L247,277ZM287,267L297,267L297,277L287,277ZM7,277L17,277L17,287L7,287ZM67,277L77,277L77,287L67,287ZM97,277L117,277L117,287L97,287ZM147,277L167,277L167,287L147,287ZM177,277L187,277L187,287L177,287ZM217,277L227,277L227,287L217,287ZM247,277L257,277L257,287L247,287ZM267,277L277,277L277,287L267,287ZM287,277L297,277L297,287L287,287ZM7,287L77,287L77,297L7,297ZM127,287L137,287L137,297L127,297ZM147,287L177,287L177,297L147,297ZM187,287L197,287L197,297L187,297ZM207,287L257,287L257,297L207,297ZM267,287L297,287L297,297L267,297Z"/></svg>
